<svg xmlns="http://www.w3.org/2000/svg" width="480" height="360" viewBox="0 0 480 360">
  <defs>
    <linearGradient id="th_cardio" x1="0" y1="0" x2="1" y2="1">
      <stop offset="0%" stop-color="#12161c"/><stop offset="100%" stop-color="#000"/>
    </linearGradient>
    <radialGradient id="th_cardiog" cx="50%" cy="30%" r="80%">
      <stop offset="0%" stop-color="#c4ff1e" stop-opacity="0.30"/>
      <stop offset="100%" stop-color="#c4ff1e" stop-opacity="0"/>
    </radialGradient>
    <radialGradient id="th_cardiov" cx="50%" cy="38%" r="75%"><stop offset="0%" stop-color="#c4ff1e" stop-opacity="0"/><stop offset="100%" stop-color="#000" stop-opacity="0.55"/></radialGradient>
  </defs>
  <rect width="480" height="360" fill="url(#th_cardio)"/>
  <rect width="480" height="360" fill="url(#th_cardiog)"/>
  <circle cx="96" cy="255" r="1" fill="#c4ff1e" opacity="0.12"/><circle cx="47" cy="266" r="1.5" fill="#c4ff1e" opacity="0.12"/><circle cx="128" cy="155" r="1" fill="#c4ff1e" opacity="0.17"/><circle cx="359" cy="67" r="1" fill="#c4ff1e" opacity="0.11"/><circle cx="142" cy="144" r="2" fill="#c4ff1e" opacity="0.13"/><circle cx="395" cy="208" r="2" fill="#c4ff1e" opacity="0.15"/><circle cx="428" cy="169" r="1" fill="#c4ff1e" opacity="0.13"/><circle cx="421" cy="68" r="1.5" fill="#c4ff1e" opacity="0.12"/><circle cx="61" cy="66" r="1.5" fill="#c4ff1e" opacity="0.09"/><circle cx="37" cy="35" r="2" fill="#c4ff1e" opacity="0.18"/><circle cx="125" cy="44" r="1" fill="#c4ff1e" opacity="0.13"/><circle cx="101" cy="352" r="1" fill="#c4ff1e" opacity="0.17"/><circle cx="298" cy="41" r="1" fill="#c4ff1e" opacity="0.16"/><circle cx="170" cy="64" r="1.5" fill="#c4ff1e" opacity="0.09"/><circle cx="12" cy="182" r="1" fill="#c4ff1e" opacity="0.1"/><circle cx="233" cy="146" r="1.5" fill="#c4ff1e" opacity="0.14"/><circle cx="104" cy="351" r="2" fill="#c4ff1e" opacity="0.19"/><circle cx="165" cy="83" r="2" fill="#c4ff1e" opacity="0.19"/><circle cx="448" cy="95" r="1" fill="#c4ff1e" opacity="0.19"/><circle cx="121" cy="265" r="2" fill="#c4ff1e" opacity="0.07"/><circle cx="259" cy="271" r="1.5" fill="#c4ff1e" opacity="0.17"/><circle cx="345" cy="91" r="1" fill="#c4ff1e" opacity="0.11"/><circle cx="479" cy="190" r="1.5" fill="#c4ff1e" opacity="0.2"/><circle cx="370" cy="37" r="1.5" fill="#c4ff1e" opacity="0.2"/><circle cx="348" cy="67" r="1" fill="#c4ff1e" opacity="0.16"/><circle cx="247" cy="82" r="1" fill="#c4ff1e" opacity="0.2"/><circle cx="368" cy="360" r="1" fill="#c4ff1e" opacity="0.11"/><circle cx="20" cy="69" r="1.5" fill="#c4ff1e" opacity="0.18"/><circle cx="450" cy="117" r="1" fill="#c4ff1e" opacity="0.07"/><circle cx="384" cy="34" r="1" fill="#c4ff1e" opacity="0.17"/><circle cx="245" cy="5" r="1" fill="#c4ff1e" opacity="0.13"/><circle cx="417" cy="79" r="1" fill="#c4ff1e" opacity="0.07"/><circle cx="156" cy="48" r="1.5" fill="#c4ff1e" opacity="0.06"/><circle cx="340" cy="48" r="1.5" fill="#c4ff1e" opacity="0.19"/><circle cx="461" cy="139" r="1" fill="#c4ff1e" opacity="0.12"/><circle cx="428" cy="211" r="1" fill="#c4ff1e" opacity="0.11"/><circle cx="35" cy="249" r="1.5" fill="#c4ff1e" opacity="0.07"/><circle cx="223" cy="103" r="2" fill="#c4ff1e" opacity="0.06"/><circle cx="78" cy="309" r="2" fill="#c4ff1e" opacity="0.17"/><circle cx="361" cy="151" r="1" fill="#c4ff1e" opacity="0.16"/><circle cx="400" cy="193" r="2" fill="#c4ff1e" opacity="0.08"/><circle cx="340" cy="203" r="1.5" fill="#c4ff1e" opacity="0.08"/><circle cx="218" cy="348" r="1" fill="#c4ff1e" opacity="0.07"/><circle cx="89" cy="282" r="1" fill="#c4ff1e" opacity="0.08"/><circle cx="406" cy="243" r="1" fill="#c4ff1e" opacity="0.2"/><circle cx="135" cy="331" r="1" fill="#c4ff1e" opacity="0.07"/><circle cx="439" cy="225" r="1" fill="#c4ff1e" opacity="0.12"/><circle cx="169" cy="292" r="1.5" fill="#c4ff1e" opacity="0.11"/><circle cx="304" cy="13" r="1" fill="#c4ff1e" opacity="0.12"/><circle cx="427" cy="331" r="2" fill="#c4ff1e" opacity="0.16"/><circle cx="212" cy="178" r="1.5" fill="#c4ff1e" opacity="0.16"/><circle cx="19" cy="191" r="2" fill="#c4ff1e" opacity="0.18"/><circle cx="218" cy="131" r="2" fill="#c4ff1e" opacity="0.09"/><circle cx="128" cy="61" r="1" fill="#c4ff1e" opacity="0.14"/><circle cx="174" cy="163" r="1" fill="#c4ff1e" opacity="0.12"/>
  <circle cx="240" cy="166" r="108" fill="#c4ff1e" opacity="0.12"/>
  <circle cx="240" cy="166" r="78" fill="none" stroke="#c4ff1e" stroke-width="1.5" opacity="0.4"/>
  <circle cx="240" cy="166" r="54" fill="#c4ff1e" opacity="0.18"/>
  <g transform="translate(136.32,61.92) scale(1.728)" fill="#c4ff1e" color="#c4ff1e"><path d="M20 60h14l6-16 10 32 8-24 6 8h16" fill="none" stroke="currentColor" stroke-width="5" stroke-linecap="round" stroke-linejoin="round"/></g>
  <rect width="480" height="360" fill="url(#th_cardiov)"/>
  <rect x="0.5" y="0.5" width="479" height="359" fill="none" stroke="#c4ff1e" stroke-opacity="0.15"/>
</svg>